<svg xmlns="http://www.w3.org/2000/svg" width="1600" height="418" viewBox="0 0 1600 418">
<rect x="0" y="0" width="100%" height="100%" fill="white"/>
<defs>
<pattern id="pat-baseline" patternUnits="userSpaceOnUse" width="8" height="8">
<rect x="0" y="0" width="8" height="8" fill="#999999"/>
<path d="M-2,2 L2,-2 M0,8 L8,0 M6,10 L10,6" stroke="#ffffff" stroke-width="1.2"/>
</pattern>
<pattern id="pat-long_horizon_planning" patternUnits="userSpaceOnUse" width="8" height="8">
<rect x="0" y="0" width="8" height="8" fill="#0072B2"/>
<path d="M0,4 L8,4 M4,0 L4,8" stroke="#ffffff" stroke-width="1.1"/>
</pattern>
<pattern id="pat-curated_tactics" patternUnits="userSpaceOnUse" width="8" height="8">
<rect x="0" y="0" width="8" height="8" fill="#E69F00"/>
<circle cx="2" cy="2" r="1" fill="#ffffff"/><circle cx="6" cy="6" r="1" fill="#ffffff"/>
</pattern>
<pattern id="pat-informed_traceback" patternUnits="userSpaceOnUse" width="8" height="8">
<rect x="0" y="0" width="8" height="8" fill="#009E73"/>
<path d="M0,2 L8,2 M0,6 L8,6" stroke="#ffffff" stroke-width="1.1"/>
</pattern>
<pattern id="pat-attck_r" patternUnits="userSpaceOnUse" width="8" height="8">
<rect x="0" y="0" width="8" height="8" fill="#CC79A7"/>
<path d="M2,0 L2,8 M6,0 L6,8" stroke="#ffffff" stroke-width="1.1"/>
</pattern>
</defs>
<rect x="670" y="50" width="260" height="298" fill="#fafafa"/>
<line x1="670" y1="50" x2="670" y2="348" stroke="#888" stroke-width="1.2"/>
<line x1="930" y1="50" x2="930" y2="348" stroke="#888" stroke-width="1.2"/>
<line x1="670.00" y1="50" x2="670.00" y2="348" stroke="#ececec" stroke-width="1"/>
<text x="670.00" y="378" text-anchor="middle" font-size="14" font-family="Arial" fill="#555">0.0</text>
<line x1="546.00" y1="50" x2="546.00" y2="348" stroke="#ececec" stroke-width="1"/>
<text x="546.00" y="378" text-anchor="middle" font-size="14" font-family="Arial" fill="#555">2.7</text>
<line x1="422.00" y1="50" x2="422.00" y2="348" stroke="#ececec" stroke-width="1"/>
<text x="422.00" y="378" text-anchor="middle" font-size="14" font-family="Arial" fill="#555">5.4</text>
<line x1="298.00" y1="50" x2="298.00" y2="348" stroke="#ececec" stroke-width="1"/>
<text x="298.00" y="378" text-anchor="middle" font-size="14" font-family="Arial" fill="#555">8.1</text>
<line x1="174.00" y1="50" x2="174.00" y2="348" stroke="#ececec" stroke-width="1"/>
<text x="174.00" y="378" text-anchor="middle" font-size="14" font-family="Arial" fill="#555">10.9</text>
<line x1="50.00" y1="50" x2="50.00" y2="348" stroke="#ececec" stroke-width="1"/>
<text x="50.00" y="378" text-anchor="middle" font-size="14" font-family="Arial" fill="#555">13.6</text>
<line x1="930.00" y1="50" x2="930.00" y2="348" stroke="#ececec" stroke-width="1"/>
<text x="930.00" y="378" text-anchor="middle" font-size="14" font-family="Arial" fill="#555">0.00</text>
<line x1="1054.00" y1="50" x2="1054.00" y2="348" stroke="#ececec" stroke-width="1"/>
<text x="1054.00" y="378" text-anchor="middle" font-size="14" font-family="Arial" fill="#555">0.15</text>
<line x1="1178.00" y1="50" x2="1178.00" y2="348" stroke="#ececec" stroke-width="1"/>
<text x="1178.00" y="378" text-anchor="middle" font-size="14" font-family="Arial" fill="#555">0.29</text>
<line x1="1302.00" y1="50" x2="1302.00" y2="348" stroke="#ececec" stroke-width="1"/>
<text x="1302.00" y="378" text-anchor="middle" font-size="14" font-family="Arial" fill="#555">0.44</text>
<line x1="1426.00" y1="50" x2="1426.00" y2="348" stroke="#ececec" stroke-width="1"/>
<text x="1426.00" y="378" text-anchor="middle" font-size="14" font-family="Arial" fill="#555">0.59</text>
<line x1="1550.00" y1="50" x2="1550.00" y2="348" stroke="#ececec" stroke-width="1"/>
<text x="1550.00" y="378" text-anchor="middle" font-size="14" font-family="Arial" fill="#555">0.74</text>
<text x="800.0" y="118.0" text-anchor="middle" font-size="17" font-family="Arial" font-weight="bold">Llama-3.3-70B</text>
<rect x="313.63" y="77.00" width="356.37" height="12" fill="url(#pat-baseline)" stroke="#2f2f2f" stroke-width="0.3"/>
<rect x="930.00" y="77.00" width="345.38" height="12" fill="url(#pat-baseline)" stroke="#2f2f2f" stroke-width="0.3"/>
<rect x="263.37" y="92.00" width="406.63" height="12" fill="url(#pat-long_horizon_planning)" stroke="#2f2f2f" stroke-width="0.3"/>
<rect x="930.00" y="92.00" width="404.35" height="12" fill="url(#pat-long_horizon_planning)" stroke="#2f2f2f" stroke-width="0.3"/>
<rect x="226.82" y="107.00" width="443.18" height="12" fill="url(#pat-curated_tactics)" stroke="#2f2f2f" stroke-width="0.3"/>
<rect x="930.00" y="107.00" width="446.47" height="12" fill="url(#pat-curated_tactics)" stroke="#2f2f2f" stroke-width="0.3"/>
<rect x="185.70" y="122.00" width="484.30" height="12" fill="url(#pat-informed_traceback)" stroke="#2f2f2f" stroke-width="0.3"/>
<rect x="930.00" y="122.00" width="480.16" height="12" fill="url(#pat-informed_traceback)" stroke="#2f2f2f" stroke-width="0.3"/>
<rect x="130.87" y="137.00" width="539.13" height="12" fill="url(#pat-attck_r)" stroke="#2f2f2f" stroke-width="0.3"/>
<rect x="930.00" y="137.00" width="539.13" height="12" fill="url(#pat-attck_r)" stroke="#2f2f2f" stroke-width="0.3"/>
<rect x="0" y="156" width="1600" height="86" fill="#fcfcfc"/>
<text x="800.0" y="204.0" text-anchor="middle" font-size="17" font-family="Arial" font-weight="bold">Llama-3.2-1B</text>
<rect x="436.99" y="163.00" width="233.01" height="12" fill="url(#pat-baseline)" stroke="#2f2f2f" stroke-width="0.3"/>
<rect x="930.00" y="163.00" width="235.87" height="12" fill="url(#pat-baseline)" stroke="#2f2f2f" stroke-width="0.3"/>
<rect x="400.43" y="178.00" width="269.57" height="12" fill="url(#pat-long_horizon_planning)" stroke="#2f2f2f" stroke-width="0.3"/>
<rect x="930.00" y="178.00" width="286.41" height="12" fill="url(#pat-long_horizon_planning)" stroke="#2f2f2f" stroke-width="0.3"/>
<rect x="363.88" y="193.00" width="306.12" height="12" fill="url(#pat-curated_tactics)" stroke="#2f2f2f" stroke-width="0.3"/>
<rect x="930.00" y="193.00" width="328.53" height="12" fill="url(#pat-curated_tactics)" stroke="#2f2f2f" stroke-width="0.3"/>
<rect x="336.47" y="208.00" width="333.53" height="12" fill="url(#pat-informed_traceback)" stroke="#2f2f2f" stroke-width="0.3"/>
<rect x="930.00" y="208.00" width="362.23" height="12" fill="url(#pat-informed_traceback)" stroke="#2f2f2f" stroke-width="0.3"/>
<rect x="286.21" y="223.00" width="383.79" height="12" fill="url(#pat-attck_r)" stroke="#2f2f2f" stroke-width="0.3"/>
<rect x="930.00" y="223.00" width="429.62" height="12" fill="url(#pat-attck_r)" stroke="#2f2f2f" stroke-width="0.3"/>
<text x="800.0" y="290.0" text-anchor="middle" font-size="17" font-family="Arial" font-weight="bold">Average (n=13 models)</text>
<rect x="383.56" y="249.00" width="286.44" height="12" fill="url(#pat-baseline)" stroke="#2f2f2f" stroke-width="0.3"/>
<rect x="930.00" y="249.00" width="284.47" height="12" fill="url(#pat-baseline)" stroke="#2f2f2f" stroke-width="0.3"/>
<rect x="342.09" y="264.00" width="327.91" height="12" fill="url(#pat-long_horizon_planning)" stroke="#2f2f2f" stroke-width="0.3"/>
<rect x="930.00" y="264.00" width="338.25" height="12" fill="url(#pat-long_horizon_planning)" stroke="#2f2f2f" stroke-width="0.3"/>
<rect x="301.32" y="279.00" width="368.68" height="12" fill="url(#pat-curated_tactics)" stroke="#2f2f2f" stroke-width="0.3"/>
<rect x="930.00" y="279.00" width="385.56" height="12" fill="url(#pat-curated_tactics)" stroke="#2f2f2f" stroke-width="0.3"/>
<rect x="266.18" y="294.00" width="403.82" height="12" fill="url(#pat-informed_traceback)" stroke="#2f2f2f" stroke-width="0.3"/>
<rect x="930.00" y="294.00" width="422.49" height="12" fill="url(#pat-informed_traceback)" stroke="#2f2f2f" stroke-width="0.3"/>
<rect x="211.35" y="309.00" width="458.65" height="12" fill="url(#pat-attck_r)" stroke="#2f2f2f" stroke-width="0.3"/>
<rect x="930.00" y="309.00" width="489.88" height="12" fill="url(#pat-attck_r)" stroke="#2f2f2f" stroke-width="0.3"/>
<rect x="620" y="16" width="16" height="16" fill="url(#pat-baseline)" stroke="#2f2f2f" stroke-width="0.5"/>
<text x="644" y="30" font-size="15" font-family="Arial">Baseline</text>
<rect x="810" y="16" width="16" height="16" fill="url(#pat-long_horizon_planning)" stroke="#2f2f2f" stroke-width="0.5"/>
<text x="834" y="30" font-size="15" font-family="Arial">Long-Horizon Planning</text>
<rect x="1000" y="16" width="16" height="16" fill="url(#pat-curated_tactics)" stroke="#2f2f2f" stroke-width="0.5"/>
<text x="1024" y="30" font-size="15" font-family="Arial">Curated Tactics</text>
<rect x="1190" y="16" width="16" height="16" fill="url(#pat-informed_traceback)" stroke="#2f2f2f" stroke-width="0.5"/>
<text x="1214" y="30" font-size="15" font-family="Arial">Informed Traceback</text>
<rect x="1380" y="16" width="16" height="16" fill="url(#pat-attck_r)" stroke="#2f2f2f" stroke-width="0.5"/>
<text x="1404" y="30" font-size="15" font-family="Arial">ATTCK-R</text>
<text x="360.0" y="403" text-anchor="middle" font-size="18" font-family="Arial" font-weight="bold">Velocity (success/hour)</text>
<text x="1240.0" y="403" text-anchor="middle" font-size="18" font-family="Arial" font-weight="bold">Success Rate</text>
</svg>